<?xml version="1.0" encoding="iso-8859-1"?>
<!-- Generator: Adobe Illustrator 19.0.0, SVG Export Plug-In . SVG Version: 6.00 Build 0)  -->
<svg version="1.1" id="Capa_1" xmlns="http://www.w3.org/2000/svg" xmlns:xlink="http://www.w3.org/1999/xlink" x="0px" y="0px"
	 viewBox="0 0 510.8 510.8" style="enable-background:new 0 0 510.8 510.8;" xml:space="preserve">
<polygon style="fill:#E95454;" points="286.04,211.84 130.84,283.2 0.6,0 188.6,0 "/>
<g>
	<polygon style="fill:#FFFFFF;" points="33.272,0 150.2,254.24 163.272,240.88 52.504,0 	"/>
	<polygon style="fill:#FFFFFF;" points="134.44,0 251.368,254.24 264.456,240.88 153.672,0 	"/>
</g>
<polygon style="fill:#E95454;" points="224.76,211.84 379.96,283.2 510.2,0 322.2,0 "/>
<g>
	<polygon style="fill:#FFFFFF;" points="477.528,0 360.6,254.24 347.528,240.88 458.296,0 	"/>
	<polygon style="fill:#FFFFFF;" points="376.36,0 259.432,254.24 246.344,240.88 357.128,0 	"/>
</g>
<circle style="fill:#E5E5E5;" cx="254.2" cy="319.408" r="191.392"/>
<path style="fill:#F0EFEF;" d="M303.768,296.512h-126.56c-9.84,0-17.92-8.064-17.92-17.92l0.144-1.232v-0.272
	c-0.144-10.384,8.336-18.864,18.736-18.864h87.728c11.616,0,21.872-8.608,22.56-20.24c0.544-12.176-9.168-22.432-21.328-22.432
	h-92.912c-10.256,0-17.92-8.608-17.776-18.864c0-0.144,0-0.144,0-0.272c0-0.144,0-0.144,0-0.272
	c-0.144-10.256,7.52-18.864,17.776-18.864h97.232c11.488,0,21.744-8.608,22.432-20.096c0.544-12.304-9.168-22.432-21.328-22.432
	h-67.92c-81.616,21.872-141.808,96.144-141.808,184.672S123,482.224,204.632,504.096h87.136c11.488,0,21.744-8.608,22.432-20.096
	c0.544-12.304-9.168-22.432-21.328-22.432l-102.832-0.032c-12.128,0-21.904-10.16-21.248-22.432
	c0.608-11.504,10.928-20.144,22.464-20.144h39.872c11.472-0.336,20.72-9.712,20.72-21.264c0-11.76-9.568-21.328-21.328-21.328
	h-60.448c-9.84,0-17.92-8.064-17.776-17.904v-1.504c-0.688-9.712,7.104-17.92,16.816-17.92H302.6
	c11.616,0,21.872-8.608,22.56-20.096C325.656,306.64,315.944,296.512,303.768,296.512z"/>
<g>
	<path style="fill:#CACACA;" d="M254.2,155.936c-90.144,0-163.488,73.328-163.488,163.488S164.056,482.912,254.2,482.912
		s163.488-73.328,163.488-163.488C417.688,229.264,344.344,155.936,254.2,155.936z M254.2,457.28
		c-76.016,0-137.856-61.84-137.856-137.856s61.84-137.856,137.856-137.856s137.856,61.84,137.856,137.856S330.2,457.28,254.2,457.28
		z"/>
	<path style="fill:#CACACA;" d="M266.76,337.808c6.944-6.368,11.744-11.248,14.4-14.64c4.016-5.12,6.96-10,8.8-14.672
		c1.856-4.672,2.784-9.584,2.784-14.752c0-9.072-3.232-16.672-9.696-22.768c-6.464-6.112-15.36-9.152-26.688-9.152
		c-10.336,0-18.944,2.64-25.824,7.904c-6.88,5.264-10.976,13.952-12.288,26.064l21.904,2.192c0.416-6.416,1.984-11.008,4.688-13.776
		c2.72-2.768,6.368-4.144,10.96-4.144c4.64,0,8.288,1.312,10.912,3.952s3.952,6.4,3.952,11.312c0,4.432-1.52,8.928-4.544,13.456
		c-2.24,3.28-8.32,9.552-18.24,18.784c-12.304,11.424-20.56,20.592-24.736,27.504c-4.176,6.912-6.672,14.224-7.52,21.952h77.088
		v-20.432h-43.664c1.152-1.984,2.656-4.016,4.496-6.096C255.416,348.4,259.816,344.176,266.76,337.808z"/>
	<path style="fill:#CACACA;" d="M184.856,401.376c0.352-2.816,1.952-5.264,2.736-7.904c0.752-2.656,0.8-5.456,0.768-8.288
		c-0.08-2.848-0.272-5.712-1.184-8.88c-0.272-0.096-0.544-0.192-0.816-0.304c-2.208,2.016-3.504,4.4-4.544,6.944
		c-0.976,2.544-1.696,5.232-1.504,8.24c0.208,3.024,1.424,6.352,1.616,9.344c0.032,0.384-0.064,0.752-0.048,1.136
		c-5.68-7.504-10.528-15.456-14.544-23.728c0.112-1.664,0.368-3.248,0.96-4.656c0.976-2.448,3.056-4.272,4.368-6.464
		c1.296-2.224,1.936-4.752,2.496-7.328c0.512-2.608,0.912-5.264,0.656-8.384c-0.24-0.16-0.48-0.32-0.72-0.464
		c-2.528,1.328-4.256,3.216-5.776,5.28c-1.456,2.096-2.704,4.368-3.168,7.136c-0.448,2.784,0,6.08-0.496,8.8
		c-0.08,0.528-0.32,0.976-0.448,1.488c-3.648-8.272-6.496-16.848-8.512-25.584c0.464-1.888,1.072-3.648,2.112-5.04
		c1.424-1.984,3.776-3.152,5.472-4.832c1.68-1.712,2.768-3.888,3.792-6.16c0.976-2.304,1.856-4.672,2.176-7.664
		c-0.208-0.208-0.4-0.416-0.608-0.624c-2.64,0.624-4.64,1.952-6.48,3.504c-1.792,1.584-3.408,3.392-4.384,5.824
		c-0.96,2.464-1.184,5.6-2.192,7.968c-0.256,0.64-0.656,1.136-0.992,1.696c-1.648-8.656-2.512-17.44-2.56-26.256
		c0.896-2.08,1.952-3.968,3.472-5.216c1.728-1.488,4.144-1.968,6.064-3.136c1.888-1.184,3.328-2.96,4.688-4.848
		c1.328-1.936,2.576-3.984,3.408-6.752c-0.16-0.24-0.304-0.496-0.464-0.736c-2.592-0.064-4.704,0.72-6.704,1.728
		c-1.968,1.056-3.808,2.352-5.184,4.4c-1.36,2.08-2.144,4.976-3.552,6.928c-0.464,0.688-1.072,1.2-1.648,1.744
		c0.304-8.592,1.36-17.2,3.2-25.664c0.08-0.128,0.176-0.256,0.256-0.384c1.376-2.08,2.896-3.92,4.784-4.848
		c1.872-0.976,4.208-0.8,6.192-1.44c1.968-0.656,3.632-2.016,5.248-3.504c1.6-1.552,3.136-3.232,4.432-5.744
		c-0.096-0.272-0.192-0.56-0.288-0.832c-2.384-0.688-4.464-0.448-6.512,0.032c-2.016,0.544-3.968,1.344-5.632,2.976
		c-1.648,1.664-2.944,4.256-4.608,5.76c-0.72,0.688-1.536,1.152-2.352,1.584c2.24-8.416,5.248-16.704,9.04-24.72
		c0.08,0.096,0.144,0.192,0.224,0.288c0.32-0.336,0.656-0.656,0.976-0.992c1.68-1.68,3.44-3.088,5.36-3.504
		c1.904-0.48,4,0.272,5.92,0.128c1.936-0.16,3.712-1.088,5.504-2.192c1.776-1.152,3.536-2.464,5.264-4.656
		c-0.016-0.304-0.048-0.608-0.064-0.896c-2.016-1.232-3.952-1.472-5.904-1.488c-1.936,0.048-3.888,0.384-5.744,1.584
		c-1.856,1.248-3.568,3.456-5.408,4.512c-0.896,0.56-1.84,0.88-2.8,1.088c0.032-0.192,0.032-0.368,0.064-0.544
		c6.16-11.424,13.984-22.224,23.488-32.048c-9.008,8.704-16.672,18.288-22.976,28.528c0.016-0.304,0.16-0.656,0.16-0.96
		c0.144-2.192,0.256-4.368,0.048-6.448c-0.656-4.032-1.744-7.952-4.752-11.232c-0.32,0.112-0.64,0.24-0.96,0.352
		c-3.184,5.584-4.016,10.48-4.032,14.944c0.128,2.176,0.64,4.176,1.296,6.08c0.544,1.968,1.52,3.712,2.736,5.328
		c0.176,0.224,0.352,0.464,0.512,0.688c-3.616,6.88-6.656,14-9.12,21.296c-0.016-0.08,0-0.16-0.016-0.224
		c-0.432-2.304-0.912-4.592-1.632-6.688c-1.696-4.08-3.744-7.952-7.488-10.832c-0.288,0.176-0.576,0.368-0.848,0.544
		c-1.712,6.432-1.296,11.68-0.16,16.304c0.688,2.24,1.712,4.208,2.864,6.064c1.056,1.952,2.48,3.552,4.112,4.992
		c0.048,0.048,0.096,0.08,0.144,0.128c-1.856,7.232-3.168,14.592-3.92,22c-1.008-2.176-2-4.336-3.216-6.288
		c-2.736-3.888-5.76-7.52-10.208-9.856c-0.24,0.24-0.48,0.48-0.704,0.72c-0.112,6.96,1.648,12.304,3.984,16.864
		c1.264,2.176,2.8,4.032,4.448,5.712c1.44,1.648,3.168,2.912,5.008,4.016c-0.192,7.312,0.16,14.656,1.056,21.952
		c-1.488-1.888-2.96-3.792-4.592-5.44c-3.776-3.456-7.76-6.624-12.832-8.256c-0.176,0.288-0.368,0.576-0.544,0.864
		c1.632,7.152,4.752,12.304,8.304,16.512c1.84,2,3.888,3.584,6,4.992c1.696,1.264,3.584,2.064,5.504,2.8
		c1.44,7.12,3.408,14.176,5.92,21.104c-1.904-1.52-3.792-3.088-5.776-4.368c-4.768-2.784-9.648-5.28-15.248-6.032
		c-0.112,0.32-0.224,0.64-0.336,0.96c3.456,6.976,7.984,11.632,12.736,15.216c2.416,1.664,4.944,2.88,7.488,3.888
		c1.856,0.848,3.792,1.216,5.728,1.568c3.056,6.656,6.624,13.136,10.72,19.408c-2.256-1.088-4.512-2.224-6.768-3.088
		c-5.68-1.872-11.392-3.472-17.392-3.216c-0.032,0.352-0.08,0.688-0.112,1.04c5.36,6.416,11.28,10.224,17.168,12.896
		c2.96,1.2,5.92,1.92,8.864,2.416c1.936,0.416,3.824,0.368,5.728,0.368c3.184,4.048,6.592,7.968,10.256,11.76
		c1.936-1.936,3.856-3.856,5.792-5.792c-4.208-4.064-8.112-8.32-11.728-12.768C184.712,404.128,184.648,402.704,184.856,401.376z"/>
	<path style="fill:#CACACA;" d="M356.392,366.928c-1.984,1.28-3.856,2.848-5.776,4.368c2.512-6.912,4.48-13.968,5.92-21.104
		c1.92-0.736,3.808-1.552,5.504-2.8c2.112-1.408,4.16-2.992,6-4.992c3.552-4.224,6.672-9.36,8.304-16.512
		c-0.176-0.288-0.368-0.576-0.544-0.864c-5.072,1.632-9.056,4.8-12.832,8.256c-1.632,1.648-3.104,3.552-4.592,5.44
		c0.896-7.296,1.248-14.64,1.056-21.952c1.84-1.104,3.568-2.368,5.008-4.016c1.648-1.68,3.184-3.536,4.448-5.712
		c2.336-4.56,4.08-9.904,3.984-16.864c-0.24-0.24-0.48-0.48-0.72-0.72c-4.448,2.336-7.472,5.968-10.208,9.856
		c-1.216,1.952-2.224,4.112-3.216,6.288c-0.752-7.408-2.064-14.768-3.92-22c0.048-0.048,0.096-0.08,0.144-0.128
		c1.632-1.44,3.056-3.056,4.112-4.992c1.152-1.856,2.176-3.84,2.864-6.064c1.136-4.64,1.552-9.888-0.16-16.304
		c-0.288-0.192-0.576-0.368-0.848-0.544c-3.744,2.88-5.808,6.752-7.488,10.832c-0.72,2.112-1.216,4.384-1.632,6.688
		c-0.016,0.064-0.016,0.16-0.016,0.224c-2.464-7.296-5.504-14.416-9.12-21.296c0.176-0.224,0.352-0.464,0.512-0.688
		c1.216-1.616,2.192-3.36,2.736-5.328c0.656-1.904,1.168-3.904,1.296-6.08c-0.016-4.464-0.848-9.36-4.032-14.944
		c-0.32-0.128-0.64-0.24-0.96-0.352c-3.008,3.28-4.096,7.2-4.752,11.232c-0.208,2.064-0.096,4.24,0.048,6.448
		c0,0.304,0.128,0.64,0.16,0.96c-6.32-10.224-13.984-19.824-22.976-28.528c9.504,9.84,17.328,20.64,23.488,32.048
		c0.032,0.192,0.048,0.368,0.064,0.544c-0.96-0.192-1.888-0.528-2.784-1.088c-1.84-1.056-3.552-3.28-5.408-4.512
		c-1.856-1.2-3.808-1.52-5.744-1.584c-1.952,0.016-3.904,0.256-5.904,1.488c-0.016,0.304-0.048,0.608-0.064,0.896
		c1.728,2.192,3.472,3.504,5.264,4.656c1.792,1.088,3.568,2.032,5.504,2.192c1.92,0.144,4.016-0.608,5.92-0.128
		c1.92,0.416,3.68,1.824,5.36,3.504c0.32,0.336,0.656,0.656,0.976,0.992c0.08-0.096,0.144-0.192,0.224-0.288
		c3.792,8.016,6.816,16.288,9.04,24.72c-0.816-0.432-1.632-0.896-2.352-1.584c-1.664-1.504-2.96-4.08-4.608-5.76
		c-1.648-1.632-3.616-2.432-5.632-2.976c-2.032-0.48-4.128-0.72-6.512-0.032c-0.096,0.272-0.192,0.56-0.288,0.832
		c1.296,2.512,2.832,4.192,4.432,5.744c1.616,1.488,3.28,2.848,5.248,3.504c1.984,0.64,4.32,0.464,6.192,1.44
		c1.904,0.928,3.424,2.752,4.784,4.848c0.08,0.128,0.176,0.256,0.256,0.384c1.84,8.48,2.896,17.072,3.2,25.664
		c-0.576-0.544-1.168-1.056-1.648-1.744c-1.408-1.952-2.192-4.848-3.552-6.928c-1.376-2.048-3.216-3.344-5.184-4.4
		c-2-1.008-4.112-1.792-6.704-1.728c-0.16,0.24-0.304,0.496-0.464,0.736c0.832,2.784,2.08,4.816,3.424,6.752
		c1.376,1.888,2.8,3.68,4.688,4.848c1.904,1.168,4.336,1.632,6.064,3.136c1.52,1.248,2.576,3.136,3.472,5.216
		c-0.048,8.816-0.912,17.6-2.56,26.256c-0.336-0.56-0.736-1.072-0.992-1.696c-1.024-2.368-1.232-5.504-2.192-7.968
		c-0.976-2.432-2.608-4.24-4.384-5.824c-1.84-1.552-3.84-2.88-6.48-3.504c-0.208,0.208-0.4,0.416-0.608,0.624
		c0.32,2.976,1.2,5.344,2.176,7.664c1.024,2.256,2.112,4.432,3.792,6.16c1.696,1.696,4.048,2.848,5.472,4.832
		c1.04,1.376,1.664,3.152,2.128,5.04c-2.016,8.736-4.848,17.312-8.512,25.584c-0.128-0.496-0.368-0.96-0.448-1.488
		c-0.496-2.72-0.048-6.016-0.496-8.8c-0.464-2.768-1.712-5.04-3.168-7.136c-1.52-2.064-3.248-3.936-5.776-5.28
		c-0.24,0.16-0.48,0.32-0.72,0.464c-0.256,3.12,0.144,5.776,0.656,8.384c0.56,2.592,1.2,5.12,2.496,7.328
		c1.312,2.208,3.392,4.032,4.368,6.464c0.592,1.408,0.848,2.992,0.96,4.656c-4.016,8.272-8.864,16.24-14.544,23.728
		c0-0.384-0.08-0.752-0.064-1.136c0.176-2.992,1.408-6.32,1.616-9.344c0.176-3.008-0.544-5.696-1.504-8.24
		c-1.04-2.528-2.336-4.912-4.544-6.944c-0.272,0.096-0.544,0.208-0.816,0.304c-0.912,3.168-1.088,6.016-1.184,8.88
		c-0.032,2.832,0.016,5.648,0.768,8.288c0.768,2.64,2.384,5.088,2.736,7.904c0.208,1.344,0.144,2.752-0.048,4.192
		c-3.6,4.432-7.52,8.704-11.728,12.768c1.936,1.936,3.856,3.856,5.792,5.792c3.664-3.792,7.088-7.712,10.256-11.76
		c1.904-0.016,3.792,0.048,5.728-0.368c2.944-0.496,5.904-1.216,8.864-2.416c5.888-2.672,11.808-6.48,17.168-12.896
		c-0.032-0.352-0.064-0.688-0.112-1.04c-6-0.256-11.712,1.344-17.392,3.216c-2.256,0.864-4.512,2-6.768,3.088
		c4.096-6.256,7.664-12.752,10.72-19.408c1.936-0.368,3.872-0.736,5.728-1.568c2.544-1.008,5.072-2.224,7.488-3.888
		c4.752-3.584,9.28-8.24,12.736-15.216c-0.112-0.32-0.224-0.64-0.336-0.96C366.04,361.648,361.16,364.144,356.392,366.928z"/>
</g>
<g>
	<path style="fill:#DC494A;" d="M171.96,115.152l-41.12-90.464c-4.832-10.704-17.44-15.456-28.128-10.608
		S87.256,31.52,92.104,42.224l40.608,89.344c4.784,10.592,16.864,16.384,27.616,12.272
		C171.752,139.248,176.984,126.24,171.96,115.152z"/>
	<path style="fill:#DC494A;" d="M341.96,115.152l41.12-90.464c4.832-10.704,17.44-15.456,28.128-10.608
		c10.704,4.832,15.456,17.44,10.608,28.144l-40.608,89.344c-4.784,10.592-16.864,16.384-27.616,12.272
		C342.168,139.248,336.952,126.24,341.96,115.152z"/>
</g>
<g>
</g>
<g>
</g>
<g>
</g>
<g>
</g>
<g>
</g>
<g>
</g>
<g>
</g>
<g>
</g>
<g>
</g>
<g>
</g>
<g>
</g>
<g>
</g>
<g>
</g>
<g>
</g>
<g>
</g>
</svg>
