<?xml version="1.0" encoding="iso-8859-1"?>
<!-- Generator: Adobe Illustrator 19.0.0, SVG Export Plug-In . SVG Version: 6.00 Build 0)  -->
<svg version="1.1" id="Capa_1" xmlns="http://www.w3.org/2000/svg" xmlns:xlink="http://www.w3.org/1999/xlink" x="0px" y="0px"
	 viewBox="0 0 512.001 512.001" style="enable-background:new 0 0 512.001 512.001;" xml:space="preserve">
<path style="fill:#FD9727;" d="M183.207,302.686c-4.473,0-8.111-3.639-8.111-8.112v-7.211c0-2.86,0.608-5.995,1.808-9.321
	c1.212-3.362,3.275-6.46,6.13-9.208l68.265-68.422c5.779-5.779,10.94-11.392,15.341-16.685c4.384-5.27,8.09-10.51,11.014-15.577
	c2.907-5.037,5.118-10.219,6.57-15.402c1.45-5.176,2.185-10.692,2.185-16.395c0-9.938-2.57-17.574-7.641-22.697
	c-5.07-5.117-12.356-7.711-21.655-7.711c-4.098,0-7.913,0.595-11.338,1.769c-3.428,1.178-6.537,2.81-9.24,4.849
	c-2.974,2.247-5.26,4.606-6.986,7.21c-4.569,6.898-6.106,11.914-7.591,16.765c-0.525,1.713-1.067,3.484-1.731,5.29
	c-0.496,1.348-1.774,2.24-3.188,2.24c-0.204,0-0.409-0.018-0.615-0.056l-34.72-6.385c-1.819-0.335-3.044-2.079-2.732-3.888
	c1.776-10.343,4.896-19.621,9.273-27.576c4.696-8.542,10.659-15.752,17.724-21.427c7.057-5.666,15.239-9.973,24.317-12.804
	c9.059-2.823,18.939-4.255,29.367-4.255c10.969,0,21.103,1.65,30.124,4.905c9.034,3.263,16.869,7.873,23.288,13.703
	c6.433,5.845,11.487,12.99,15.022,21.238c3.533,8.243,5.323,17.463,5.323,27.401c0,8.545-1.247,16.563-3.707,23.832
	c-2.453,7.247-5.828,14.242-10.032,20.79c-4.198,6.531-9.12,12.96-14.629,19.107c-5.495,6.128-11.383,12.391-17.5,18.614
	l-41.195,42.131c-0.259,0.265-0.175,0.558-0.128,0.672c0.048,0.114,0.2,0.379,0.571,0.379h85.382c2.61,0,4.733,2.123,4.733,4.733
	v32.773c0,2.61-2.123,4.733-4.733,4.733H183.207V302.686z"/>
<g>
	<path style="fill:#FF6D3A;" d="M290.13,214.603c5.187-5.343,10.199-10.696,14.912-15.951c5.51-6.147,10.432-12.576,14.629-19.107
		c4.204-6.548,7.579-13.543,10.032-20.79c2.46-7.269,3.707-15.287,3.707-23.832c0-9.938-1.79-19.158-5.323-27.401
		c-3.536-8.248-8.59-15.393-15.022-21.238c-6.333-5.753-14.051-10.312-22.934-13.567v141.886H290.13z"/>
	<path style="fill:#FF6D3A;" d="M336.904,297.953V265.18c0-2.61-2.123-4.733-4.733-4.733H290.13v42.239l0,0h42.041
		C334.781,302.686,336.904,300.563,336.904,297.953z"/>
</g>
<g>
	<path style="fill:#FD9727;" d="M39.097,110.51c12.916-14.092,26.452-26.773,41.355-38.546c1.753-1.384,4.276,0.273,3.689,2.428
		c-8.353,30.703-22.948,61.045-45.448,83.601C37.683,142.202,37.668,126.279,39.097,110.51z"/>
	<path style="fill:#FD9727;" d="M38.695,158.005c-12.99-15.676-24.152-31.883-34.211-49.381c-1.15-2.001-4.209-1.287-4.326,1.018
		c-1.814,35.843,11.881,77.782,45.246,94.697C42.079,189.096,39.683,173.585,38.695,158.005z"/>
	<path style="fill:#FD9727;" d="M45.402,204.327c8.175-16.82,17.326-32.47,28.051-47.64c1.273-1.8,4.126-0.975,4.219,1.227
		c1.307,30.962-4.006,63.692-18.842,90.871C53.332,234.319,48.692,219.46,45.402,204.327z"/>
	<path style="fill:#FD9727;" d="M58.834,248.797c-16.867-10.84-32.276-22.694-47.056-36.007c-1.705-1.536-4.38,0.068-3.802,2.288
		c8.904,34.236,34.367,69.369,70.62,75.574C71.06,277.194,64.309,263.227,58.834,248.797z"/>
	<path style="fill:#FD9727;" d="M78.59,290.642c2.955-18.351,7.181-35.856,13.064-53.357c0.7-2.082,3.655-2.122,4.388-0.052
		c10.289,29.048,14.457,61.819,8.249,91.936C94.856,316.957,86.126,304.122,78.59,290.642z"/>
	<path style="fill:#FD9727;" d="M104.299,329.179c-19.228-5.447-37.392-12.26-55.383-20.61c-2.078-0.965-4.161,1.347-2.963,3.301
		c18.497,30.164,53.127,56.281,89.602,51.78C124.358,352.923,113.777,341.464,104.299,329.179z"/>
	<path style="fill:#FD9727;" d="M135.546,363.642c-2.624-18.489-3.738-36.521-3.223-55.057c0.061-2.197,2.88-3.098,4.184-1.329
		c18.423,24.977,32.166,55.317,35.455,86.077C159.152,384.331,146.852,374.49,135.546,363.642z"/>
	<path style="fill:#FD9727;" d="M472.903,110.51c-12.916-14.092-26.452-26.773-41.355-38.546c-1.753-1.384-4.276,0.273-3.689,2.428
		c8.353,30.703,22.948,61.045,45.448,83.601C474.317,142.202,474.332,126.279,472.903,110.51z"/>
	<path style="fill:#FD9727;" d="M473.305,158.005c12.99-15.676,24.152-31.883,34.211-49.381c1.15-2.001,4.209-1.287,4.326,1.018
		c1.814,35.843-11.881,77.782-45.246,94.697C469.921,189.096,472.317,173.585,473.305,158.005z"/>
	<path style="fill:#FD9727;" d="M466.598,204.327c-8.175-16.82-17.326-32.47-28.051-47.64c-1.273-1.8-4.126-0.975-4.219,1.227
		c-1.307,30.962,4.006,63.692,18.842,90.871C458.668,234.319,463.308,219.46,466.598,204.327z"/>
	<path style="fill:#FD9727;" d="M453.166,248.797c16.867-10.84,32.276-22.694,47.056-36.007c1.705-1.536,4.38,0.068,3.802,2.288
		c-8.904,34.236-34.367,69.369-70.62,75.574C440.94,277.194,447.691,263.227,453.166,248.797z"/>
	<path style="fill:#FD9727;" d="M433.41,290.642c-2.955-18.351-7.181-35.856-13.064-53.357c-0.7-2.082-3.655-2.122-4.388-0.052
		c-10.289,29.048-14.457,61.819-8.249,91.936C417.144,316.957,425.874,304.122,433.41,290.642z"/>
	<path style="fill:#FD9727;" d="M407.701,329.179c19.228-5.447,37.392-12.26,55.383-20.61c2.079-0.965,4.161,1.347,2.964,3.301
		c-18.497,30.164-53.127,56.281-89.602,51.78C387.642,352.923,398.223,341.464,407.701,329.179z"/>
	<path style="fill:#FD9727;" d="M376.454,363.642c2.624-18.489,3.738-36.521,3.223-55.057c-0.061-2.197-2.88-3.098-4.184-1.329
		c-18.423,24.977-32.166,55.317-35.455,86.077C352.848,384.331,365.148,374.49,376.454,363.642z"/>
</g>
<path style="fill:#FF6D3A;" d="M480.34,111.142c-0.003-0.152,0-0.303-0.011-0.456c-1.766-23.507-6.099-47.072-12.879-70.039
	c-1.208-4.093-5.508-6.432-9.598-5.223c-4.093,1.208-6.432,5.505-5.224,9.598c6.406,21.699,10.515,43.949,12.231,66.143
	c0.004,0.166,0.005,0.332,0.02,0.5c1.302,14.349,1.432,29.898,0.388,46.217c-0.001,0.006-0.002,0.013-0.002,0.019
	c-0.898,14.169-3.097,29.341-6.534,45.095c0,0.001-0.001,0.003-0.001,0.004c-2.992,13.763-7.394,28.327-13.08,43.288
	c-0.002,0.005-0.003,0.009-0.005,0.014v0.001c-4.985,13.138-11.461,26.849-19.247,40.753l0,0
	c-6.865,12.279-15.286,24.901-25.032,37.516c-0.002,0.002-0.003,0.005-0.005,0.007c-0.002,0.002-0.004,0.004-0.005,0.006
	c-8.638,11.195-18.876,22.484-30.431,33.556l-0.001,0.001c-10.297,9.88-22.225,19.602-35.455,28.899
	c-0.048,0.034-0.09,0.073-0.137,0.107c-0.045,0.033-0.093,0.061-0.137,0.095c-22.256,17.1-33.534,21.365-45.474,25.878
	c-9.457,3.576-19.111,7.235-33.719,16.973c-14.608-9.738-24.262-13.397-33.719-16.973c-11.94-4.514-23.218-8.778-45.474-25.878
	c-0.044-0.034-0.092-0.061-0.137-0.094c-0.047-0.035-0.09-0.074-0.138-0.108c-13.23-9.296-25.158-19.019-35.455-28.899l-0.001-0.001
	c-11.555-11.071-21.793-22.361-30.431-33.556c-0.002-0.002-0.004-0.004-0.005-0.006c-0.002-0.002-0.003-0.005-0.005-0.007
	c-9.746-12.615-18.168-25.237-25.032-37.516l0,0c-7.787-13.904-14.262-27.615-19.247-40.753c0-0.001,0-0.001-0.001-0.001
	c-0.002-0.005-0.003-0.009-0.005-0.014C60.664,231.327,56.263,216.763,53.27,203c0-0.002-0.001-0.003-0.001-0.004
	c-3.438-15.754-5.636-30.927-6.534-45.095c-0.001-0.007-0.002-0.013-0.002-0.019c-1.044-16.318-0.914-31.868,0.388-46.217
	c0.015-0.168,0.016-0.334,0.02-0.5c1.716-22.194,5.825-44.443,12.231-66.143c1.208-4.093-1.131-8.39-5.224-9.598
	c-4.089-1.211-8.39,1.13-9.598,5.223c-6.78,22.967-11.113,46.532-12.879,70.039c-0.012,0.153-0.009,0.304-0.011,0.456
	c-1.3,14.895-1.423,30.943-0.348,47.727c0,0.004,0,0.007,0,0.011c0.948,14.933,3.254,30.871,6.852,47.372
	c0.002,0.011,0.003,0.022,0.005,0.033c3.156,14.509,7.776,29.814,13.734,45.489c0.002,0.004,0.003,0.008,0.004,0.012
	c5.253,13.841,12.049,28.242,20.202,42.802c0.002,0.003,0.003,0.006,0.005,0.009c7.236,12.943,16.082,26.207,26.294,39.423
	c0.001,0.001,0.002,0.002,0.003,0.003c0.001,0.001,0.001,0.001,0.001,0.002c9.108,11.805,19.867,23.674,31.979,35.279
	c0.003,0.003,0.007,0.006,0.01,0.009c10.823,10.382,23.312,20.569,37.121,30.281c23.982,18.411,36.851,23.277,49.294,27.982
	c7.745,2.928,15.284,5.784,25.721,12.203c-7.99,6.124-17.244,13.808-28.224,23.632c-3.18,2.845-3.452,7.73-0.606,10.91
	c1.526,1.706,3.639,2.575,5.761,2.575c1.834,0,3.675-0.649,5.149-1.969c12.732-11.393,22.908-19.719,31.383-25.981
	c8.474,6.262,18.65,14.588,31.383,25.981c1.474,1.319,3.315,1.969,5.149,1.969c2.122,0,4.235-0.869,5.761-2.575
	c2.846-3.18,2.575-8.065-0.606-10.91c-10.979-9.825-20.234-17.509-28.224-23.632c10.436-6.419,17.976-9.275,25.721-12.203
	c12.444-4.704,25.312-9.571,49.294-27.982c13.809-9.712,26.298-19.899,37.121-30.281c0.003-0.003,0.007-0.006,0.01-0.009
	c12.112-11.605,22.871-23.474,31.979-35.279c0-0.001,0.001-0.001,0.001-0.002c0.001-0.001,0.002-0.002,0.003-0.003
	c10.212-13.216,19.058-26.48,26.294-39.423c0.002-0.003,0.003-0.006,0.005-0.009c8.152-14.56,14.949-28.961,20.202-42.802
	c0.001-0.004,0.003-0.008,0.004-0.012c5.958-15.675,10.578-30.98,13.734-45.489c0.002-0.011,0.003-0.022,0.005-0.033
	c3.599-16.501,5.904-32.439,6.852-47.372c0-0.004,0-0.007,0-0.011C481.763,142.085,481.641,126.037,480.34,111.142z"/>
<g>
</g>
<g>
</g>
<g>
</g>
<g>
</g>
<g>
</g>
<g>
</g>
<g>
</g>
<g>
</g>
<g>
</g>
<g>
</g>
<g>
</g>
<g>
</g>
<g>
</g>
<g>
</g>
<g>
</g>
</svg>
