<?xml version="1.0" encoding="iso-8859-1"?>
<!-- Generator: Adobe Illustrator 19.0.0, SVG Export Plug-In . SVG Version: 6.00 Build 0)  -->
<svg version="1.1" id="Capa_1" xmlns="http://www.w3.org/2000/svg" xmlns:xlink="http://www.w3.org/1999/xlink" x="0px" y="0px"
	 viewBox="0 0 512.001 512.001" style="enable-background:new 0 0 512.001 512.001;" xml:space="preserve">
<path style="fill:#B9BBC1;" d="M256,305.323c-11.273,0-21.362-1.297-29.987-3.854c-8.659-2.565-16.388-6.471-22.969-11.608
	c-6.584-5.139-12.303-11.67-17-19.413c-3.9-6.424-7.44-13.855-10.523-22.083c-1.241-3.312,0.344-6.971,3.61-8.329l26.637-11.08
	c0.8-0.334,1.642-0.502,2.505-0.502c2.328,0,4.495,1.252,5.658,3.271c4.446,7.714,9.908,16.98,11.394,19.093
	c2.323,3.305,4.959,6.204,7.838,8.616c2.859,2.401,6.146,4.291,9.775,5.617c3.624,1.329,7.858,2.002,12.586,2.002
	c5.97,0,11.226-0.985,15.621-2.929c4.404-1.944,8.139-4.51,11.103-7.628c2.958-3.11,5.209-6.68,6.689-10.609
	c1.483-3.943,2.236-7.907,2.236-11.783c0-5.197-0.473-9.957-1.405-14.148c-0.9-4.047-3.007-7.548-6.262-10.405
	c-3.298-2.891-8.28-5.165-14.809-6.76c-5.545-1.353-12.871-2.149-21.776-2.368c-3.59-0.09-6.402-2.956-6.402-6.526v-19.973
	c0-3.538,2.766-6.401,6.297-6.519c7.16-0.242,13.262-1.004,18.138-2.264c5.966-1.544,10.695-3.72,14.053-6.469
	c3.323-2.719,5.644-6.031,6.898-9.845c1.284-3.899,1.935-8.225,1.935-12.857c0-9.726-2.544-17.229-7.561-22.3
	c-5.016-5.064-12.276-7.632-21.578-7.632c-4.098,0-7.912,0.595-11.336,1.769c-3.427,1.177-6.537,2.809-9.242,4.85
	c-2.711,2.047-5.068,4.482-7.002,7.234c-1.935,2.75-3.381,5.796-4.297,9.053c-0.6,1.59-1.327,4.049-2.169,6.895
	c-0.288,0.972-0.586,1.983-0.894,3.004c-0.823,2.732-3.391,4.639-6.244,4.639c-0.371,0-0.745-0.032-1.112-0.096l-29.927-5.146
	c-1.749-0.301-3.263-1.275-4.264-2.74c-1.017-1.489-1.376-3.289-1.012-5.067c1.836-8.967,4.74-17.102,8.632-24.177
	c4.699-8.544,10.663-15.754,17.726-21.428c7.058-5.667,15.213-9.974,24.236-12.803c9.008-2.824,18.861-4.256,29.287-4.256
	c11.073,0,21.154,1.596,29.962,4.745c8.821,3.156,16.389,7.525,22.492,12.985c6.113,5.471,10.873,11.945,14.147,19.243
	c3.275,7.303,4.935,15.245,4.935,23.605c0,7.355-0.787,13.938-2.34,19.568c-1.562,5.653-3.914,10.653-6.99,14.863
	c-3.077,4.21-6.908,7.822-11.386,10.737c-3.719,2.419-7.95,4.522-12.606,6.27c24.96,9.121,37.608,26.9,37.608,52.888
	c0,11.852-2.225,22.448-6.614,31.494c-4.385,9.038-10.354,16.714-17.739,22.814c-7.372,6.091-16.064,10.723-25.835,13.767
	C276.971,303.784,266.637,305.323,256,305.323z"/>
<g>
	<path style="fill:#A0A3AA;" d="M300.883,180.395v114.417c4.181-2.257,8.083-4.866,11.667-7.828
		c7.385-6.1,13.354-13.776,17.739-22.814c4.389-9.045,6.614-19.641,6.614-31.494C336.903,207.248,324.786,189.684,300.883,180.395z"
		/>
	<path style="fill:#A0A3AA;" d="M323.287,162.781c3.076-4.21,5.428-9.211,6.99-14.863c1.553-5.629,2.34-12.213,2.34-19.568
		c0-8.36-1.661-16.302-4.935-23.605c-3.274-7.298-8.034-13.772-14.147-19.243c-3.694-3.304-7.932-6.202-12.651-8.68v102.326
		c4.026-1.617,7.732-3.491,11.018-5.629C316.379,170.603,320.21,166.991,323.287,162.781z"/>
</g>
<g>
	<path style="fill:#FD9727;" d="M39.097,110.51c12.916-14.092,26.452-26.773,41.355-38.546c1.753-1.384,4.276,0.273,3.689,2.428
		c-8.353,30.703-22.948,61.045-45.448,83.601C37.683,142.202,37.668,126.279,39.097,110.51z"/>
	<path style="fill:#FD9727;" d="M38.695,158.005c-12.99-15.676-24.152-31.883-34.211-49.381c-1.15-2.001-4.209-1.287-4.326,1.018
		c-1.814,35.843,11.881,77.782,45.246,94.697C42.079,189.096,39.683,173.585,38.695,158.005z"/>
	<path style="fill:#FD9727;" d="M45.402,204.327c8.175-16.82,17.326-32.47,28.051-47.64c1.273-1.8,4.126-0.975,4.219,1.227
		c1.307,30.962-4.006,63.692-18.842,90.871C53.332,234.319,48.692,219.46,45.402,204.327z"/>
	<path style="fill:#FD9727;" d="M58.834,248.797c-16.867-10.84-32.276-22.694-47.056-36.007c-1.705-1.536-4.38,0.068-3.802,2.288
		c8.904,34.236,34.367,69.369,70.62,75.574C71.06,277.194,64.309,263.227,58.834,248.797z"/>
	<path style="fill:#FD9727;" d="M78.59,290.642c2.955-18.351,7.181-35.856,13.064-53.357c0.7-2.082,3.655-2.122,4.388-0.052
		c10.289,29.048,14.457,61.819,8.249,91.936C94.856,316.957,86.126,304.122,78.59,290.642z"/>
	<path style="fill:#FD9727;" d="M104.299,329.179c-19.228-5.447-37.392-12.26-55.383-20.61c-2.078-0.965-4.161,1.347-2.963,3.301
		c18.497,30.164,53.127,56.281,89.602,51.78C124.358,352.923,113.777,341.464,104.299,329.179z"/>
	<path style="fill:#FD9727;" d="M135.546,363.642c-2.624-18.489-3.738-36.521-3.223-55.057c0.061-2.197,2.88-3.098,4.184-1.329
		c18.423,24.977,32.166,55.317,35.455,86.077C159.152,384.331,146.852,374.49,135.546,363.642z"/>
	<path style="fill:#FD9727;" d="M472.903,110.51c-12.916-14.092-26.452-26.773-41.355-38.546c-1.753-1.384-4.276,0.273-3.689,2.428
		c8.353,30.703,22.948,61.045,45.448,83.601C474.317,142.202,474.332,126.279,472.903,110.51z"/>
	<path style="fill:#FD9727;" d="M473.305,158.005c12.99-15.676,24.152-31.883,34.211-49.381c1.15-2.001,4.209-1.287,4.326,1.018
		c1.814,35.843-11.881,77.782-45.246,94.697C469.921,189.096,472.317,173.585,473.305,158.005z"/>
	<path style="fill:#FD9727;" d="M466.598,204.327c-8.175-16.82-17.326-32.47-28.051-47.64c-1.273-1.8-4.126-0.975-4.219,1.227
		c-1.307,30.962,4.006,63.692,18.842,90.871C458.668,234.319,463.308,219.46,466.598,204.327z"/>
	<path style="fill:#FD9727;" d="M453.166,248.797c16.867-10.84,32.276-22.694,47.056-36.007c1.705-1.536,4.38,0.068,3.802,2.288
		c-8.904,34.236-34.367,69.369-70.62,75.574C440.94,277.194,447.691,263.227,453.166,248.797z"/>
	<path style="fill:#FD9727;" d="M433.41,290.642c-2.955-18.351-7.181-35.856-13.064-53.357c-0.7-2.082-3.655-2.122-4.388-0.052
		c-10.289,29.048-14.457,61.819-8.249,91.936C417.144,316.957,425.874,304.122,433.41,290.642z"/>
	<path style="fill:#FD9727;" d="M407.701,329.179c19.228-5.447,37.392-12.26,55.383-20.61c2.079-0.965,4.161,1.347,2.964,3.301
		c-18.497,30.164-53.127,56.281-89.602,51.78C387.642,352.923,398.223,341.464,407.701,329.179z"/>
	<path style="fill:#FD9727;" d="M376.454,363.642c2.624-18.489,3.738-36.521,3.223-55.057c-0.061-2.197-2.88-3.098-4.184-1.329
		c-18.423,24.977-32.166,55.317-35.455,86.077C352.848,384.331,365.148,374.49,376.454,363.642z"/>
</g>
<path style="fill:#FF6D3A;" d="M480.34,111.142c-0.003-0.152,0-0.303-0.011-0.456c-1.766-23.507-6.099-47.072-12.879-70.039
	c-1.208-4.093-5.508-6.432-9.598-5.223c-4.093,1.208-6.432,5.505-5.224,9.598c6.406,21.699,10.515,43.949,12.231,66.143
	c0.004,0.166,0.005,0.332,0.02,0.5c1.302,14.349,1.432,29.898,0.388,46.217c-0.001,0.006-0.002,0.013-0.002,0.019
	c-0.898,14.169-3.097,29.341-6.534,45.095c0,0.001-0.001,0.003-0.001,0.004c-2.992,13.763-7.394,28.327-13.08,43.288
	c-0.002,0.005-0.003,0.009-0.005,0.014v0.001c-4.985,13.138-11.461,26.849-19.247,40.753l0,0
	c-6.865,12.279-15.286,24.901-25.032,37.516c-0.002,0.002-0.003,0.005-0.005,0.007c-0.002,0.002-0.004,0.004-0.005,0.006
	c-8.638,11.195-18.876,22.484-30.431,33.556l-0.001,0.001c-10.297,9.88-22.225,19.602-35.455,28.899
	c-0.048,0.034-0.09,0.073-0.137,0.107c-0.045,0.033-0.093,0.061-0.137,0.095c-22.256,17.1-33.534,21.365-45.474,25.878
	c-9.457,3.576-19.111,7.235-33.719,16.973c-14.608-9.738-24.262-13.397-33.719-16.973c-11.94-4.514-23.218-8.778-45.474-25.878
	c-0.044-0.034-0.092-0.061-0.137-0.094c-0.047-0.035-0.09-0.074-0.138-0.108c-13.23-9.296-25.158-19.019-35.455-28.899l-0.001-0.001
	c-11.555-11.071-21.793-22.361-30.431-33.556c-0.002-0.002-0.004-0.004-0.005-0.006c-0.002-0.002-0.003-0.005-0.005-0.007
	c-9.746-12.615-18.168-25.237-25.032-37.516l0,0c-7.787-13.904-14.262-27.615-19.247-40.753c0-0.001,0-0.001-0.001-0.001
	c-0.002-0.005-0.003-0.009-0.005-0.014C60.664,231.327,56.263,216.763,53.27,203c0-0.002-0.001-0.003-0.001-0.004
	c-3.438-15.754-5.636-30.927-6.534-45.095c-0.001-0.007-0.002-0.013-0.002-0.019c-1.044-16.318-0.914-31.868,0.388-46.217
	c0.015-0.168,0.016-0.334,0.02-0.5c1.716-22.194,5.825-44.443,12.231-66.143c1.208-4.093-1.131-8.39-5.224-9.598
	c-4.089-1.211-8.39,1.13-9.598,5.223c-6.78,22.967-11.113,46.532-12.879,70.039c-0.012,0.153-0.009,0.304-0.011,0.456
	c-1.3,14.895-1.423,30.943-0.348,47.727c0,0.004,0,0.007,0,0.011c0.948,14.933,3.254,30.871,6.852,47.372
	c0.002,0.011,0.003,0.022,0.005,0.033c3.156,14.509,7.776,29.814,13.734,45.489c0.002,0.004,0.003,0.008,0.004,0.012
	c5.253,13.841,12.049,28.242,20.202,42.802c0.002,0.003,0.003,0.006,0.005,0.009c7.236,12.943,16.082,26.207,26.294,39.423
	c0.001,0.001,0.002,0.002,0.003,0.003c0.001,0.001,0.001,0.001,0.001,0.002c9.108,11.805,19.867,23.674,31.979,35.279
	c0.003,0.003,0.007,0.006,0.01,0.009c10.823,10.382,23.312,20.569,37.121,30.281c23.982,18.411,36.851,23.277,49.294,27.982
	c7.745,2.928,15.284,5.784,25.721,12.203c-7.99,6.124-17.244,13.808-28.224,23.632c-3.18,2.845-3.452,7.73-0.606,10.91
	c1.526,1.706,3.639,2.575,5.761,2.575c1.834,0,3.675-0.649,5.149-1.969c12.732-11.393,22.908-19.719,31.383-25.981
	c8.474,6.262,18.65,14.588,31.383,25.981c1.474,1.319,3.315,1.969,5.149,1.969c2.122,0,4.235-0.869,5.761-2.575
	c2.846-3.18,2.575-8.065-0.606-10.91c-10.979-9.825-20.234-17.509-28.224-23.632c10.436-6.419,17.976-9.275,25.721-12.203
	c12.444-4.704,25.312-9.571,49.294-27.982c13.809-9.712,26.298-19.899,37.121-30.281c0.003-0.003,0.007-0.006,0.01-0.009
	c12.112-11.605,22.871-23.474,31.979-35.279c0-0.001,0.001-0.001,0.001-0.002c0.001-0.001,0.002-0.002,0.003-0.003
	c10.212-13.216,19.058-26.48,26.294-39.423c0.002-0.003,0.003-0.006,0.005-0.009c8.152-14.56,14.949-28.961,20.202-42.802
	c0.001-0.004,0.003-0.008,0.004-0.012c5.958-15.675,10.578-30.98,13.734-45.489c0.002-0.011,0.003-0.022,0.005-0.033
	c3.599-16.501,5.904-32.439,6.852-47.372c0-0.004,0-0.007,0-0.011C481.763,142.085,481.641,126.037,480.34,111.142z"/>
<g>
</g>
<g>
</g>
<g>
</g>
<g>
</g>
<g>
</g>
<g>
</g>
<g>
</g>
<g>
</g>
<g>
</g>
<g>
</g>
<g>
</g>
<g>
</g>
<g>
</g>
<g>
</g>
<g>
</g>
</svg>
