<?xml version="1.0" encoding="UTF-8"?>
<svg xmlns="http://www.w3.org/2000/svg" xmlns:xlink="http://www.w3.org/1999/xlink" width="100pt" height="100pt" viewBox="0 0 100 100" version="1.1">
<g id="surface16089000">
<path style=" stroke:none;fill-rule:nonzero;fill:rgb(20.392157%,59.607843%,85.882353%);fill-opacity:1;" d="M 50 4 C 48.570312 4 47.140625 4.359375 45.867188 5.078125 L 12.179688 24.007812 C 9.601562 25.453125 8 28.164062 8 31.070312 L 8 68.929688 C 8 71.835938 9.601562 74.546875 12.179688 75.992188 L 45.867188 94.921875 C 47.140625 95.640625 48.570312 96 50 96 C 51.429688 96 52.859375 95.640625 54.132812 94.921875 L 87.820312 76 C 90.398438 74.546875 92 71.835938 92 68.929688 L 92 31.070312 C 92 28.164062 90.398438 25.453125 87.820312 24.007812 L 54.132812 5.078125 C 52.859375 4.359375 51.429688 4 50 4 Z M 50 26 C 57.5625 26 64.554688 29.507812 69.085938 35.476562 L 60.320312 40.554688 C 57.6875 37.671875 53.945312 36 50 36 C 42.28125 36 36 42.28125 36 50 C 36 57.71875 42.28125 64 50 64 C 53.945312 64 57.6875 62.328125 60.320312 59.445312 L 69.085938 64.523438 C 64.554688 70.492188 57.5625 74 50 74 C 36.765625 74 26 63.234375 26 50 C 26 36.765625 36.765625 26 50 26 Z M 70 40 L 74 40 L 74 44 L 78 44 L 78 40 L 82 40 L 82 44 L 86 44 L 86 48 L 82 48 L 82 52 L 86 52 L 86 56 L 82 56 L 82 60 L 78 60 L 78 56 L 74 56 L 74 60 L 70 60 L 70 56 L 66 56 L 66 52 L 70 52 L 70 48 L 66 48 L 66 44 L 70 44 Z M 74 48 L 74 52 L 78 52 L 78 48 Z M 74 48 "/>
</g>
</svg>
