<?xml version="1.0" encoding="UTF-8"?>
<svg xmlns="http://www.w3.org/2000/svg" xmlns:xlink="http://www.w3.org/1999/xlink" width="100pt" height="100pt" viewBox="0 0 100 100" version="1.1">
<g id="surface16088795">
<path style=" stroke:none;fill-rule:nonzero;fill:rgb(60.784314%,34.901961%,71.372549%);fill-opacity:1;" d="M 87.820312 24.007812 L 54.140625 5.078125 C 51.585938 3.648438 48.414062 3.648438 45.859375 5.078125 L 12.179688 24.007812 C 9.601562 25.453125 8 28.164062 8 31.070312 L 8 68.929688 C 8 71.835938 9.601562 74.546875 12.179688 75.992188 L 45.859375 94.921875 C 47.140625 95.640625 48.570312 96 50 96 C 51.429688 96 52.859375 95.640625 54.140625 94.921875 L 87.820312 75.992188 C 90.398438 74.546875 92 71.835938 92 68.929688 L 92 31.070312 C 92 28.164062 90.398438 25.453125 87.820312 24.007812 Z M 50 74 C 36.765625 74 26 63.234375 26 50 C 26 36.765625 36.765625 26 50 26 C 57.5625 26 64.546875 29.507812 69.085938 35.484375 L 60.320312 40.554688 C 57.6875 37.671875 53.945312 36 50 36 C 42.28125 36 36 42.28125 36 50 C 36 57.71875 42.28125 64 50 64 C 53.945312 64 57.6875 62.328125 60.320312 59.445312 L 69.085938 64.515625 C 64.546875 70.492188 57.5625 74 50 74 Z M 74 52 L 70 52 L 70 56 L 66 56 L 66 52 L 62 52 L 62 48 L 66 48 L 66 44 L 70 44 L 70 48 L 74 48 Z M 88 52 L 84 52 L 84 56 L 80 56 L 80 52 L 76 52 L 76 48 L 80 48 L 80 44 L 84 44 L 84 48 L 88 48 Z M 88 52 "/>
</g>
</svg>
