<svg xmlns="http://www.w3.org/2000/svg" width="157" height="127" viewBox="0 0 157 127">
  <path
      d="M122.949 23.5787H19.2785C16.9977 23.5787 14.9934 25.583 14.9934 27.8637V99.189C14.9934 101.47 16.9977 100.64 19.2785 100.64H122.672C124.953 100.64 126.958 101.47 126.958 99.189V27.8637C127.234 25.583 125.23 23.5787 122.949 23.5787Z"
      fill="#D5DDEA"/>
  <path
      d="M140.296 96.6318V98.9126C140.296 101.47 138.016 103.751 135.458 103.751H6.83796C4.28075 103.751 2 101.47 2 98.9126V96.6318H140.296Z"
      fill="#D5DDEA"/>
  <path
      d="M84.3835 96.6318V97.4612C84.3835 98.9126 83.2776 100.295 81.5498 100.295H60.4701C59.0187 100.295 57.6365 99.189 57.6365 97.4612V96.6318H84.3835Z"
      fill="#E9EFF8"/>
  <g filter="url(#filter0_d_567_20642)">
    <path
        d="M114.863 32.9091V89.444C114.725 91.7939 112.858 93.7291 110.44 93.7291H26.6738C24.1857 93.7291 22.2505 91.7939 22.2505 89.444V32.9091C22.2505 30.5592 24.1857 28.624 26.6738 28.624H110.509C112.997 28.624 114.863 30.5592 114.863 32.9091Z"
        fill="url(#paint0_linear_567_20642)"/>
  </g>
  <path
      d="M27.2959 35.1206C28.1253 35.1206 28.8164 34.4295 28.8164 33.6001C28.8164 32.7707 28.1253 32.0796 27.2959 32.0796C26.4665 32.0796 25.7754 32.7707 25.7754 33.6001C25.7754 34.4295 26.4665 35.1206 27.2959 35.1206Z"
      fill="#D6DCE8"/>
  <path
      d="M31.7881 35.1206C32.6174 35.1206 33.3086 34.4295 33.3086 33.6001C33.3086 32.7707 32.6174 32.0796 31.7881 32.0796C30.9587 32.0796 30.2676 32.7707 30.2676 33.6001C30.2676 34.4295 30.9587 35.1206 31.7881 35.1206Z"
      fill="#D6DCE8"/>
  <path
      d="M36.4189 35.1206C37.2483 35.1206 37.9394 34.4295 37.9394 33.6001C37.9394 32.7707 37.2483 32.0796 36.4189 32.0796C35.5896 32.0796 34.8984 32.7707 34.8984 33.6001C34.8984 34.4295 35.5896 35.1206 36.4189 35.1206Z"
      fill="#F1F3F9"/>
  <g filter="url(#filter1_d_567_20642)">
    <path
        d="M124.4 23.4406V79.9755C124.4 80.0446 124.4 80.1829 124.4 80.252C124.193 82.5327 122.327 84.2606 120.046 84.2606H36.2114C33.7233 84.2606 31.7881 82.3254 31.7881 79.9755V23.4406C31.7881 21.0907 33.7233 19.1555 36.2114 19.1555H120.046C122.534 19.1555 124.4 21.0216 124.4 23.4406Z"
        fill="url(#paint1_linear_567_20642)"/>
  </g>
  <path
      d="M36.8335 25.6521C37.6629 25.6521 38.354 24.9609 38.354 24.1316C38.354 23.3022 37.6629 22.6111 36.8335 22.6111C36.0041 22.6111 35.313 23.3022 35.313 24.1316C35.313 24.9609 36.0041 25.6521 36.8335 25.6521Z"
      fill="#D6DCE8"/>
  <path
      d="M41.3259 25.6521C42.1553 25.6521 42.8464 24.9609 42.8464 24.1316C42.8464 23.3022 42.1553 22.6111 41.3259 22.6111C40.4966 22.6111 39.8054 23.3022 39.8054 24.1316C39.8054 24.9609 40.4966 25.6521 41.3259 25.6521Z"
      fill="#D6DCE8"/>
  <path
      d="M45.9565 25.6521C46.7859 25.6521 47.477 24.9609 47.477 24.1316C47.477 23.3022 46.7859 22.6111 45.9565 22.6111C45.1272 22.6111 44.436 23.3022 44.436 24.1316C44.436 24.9609 45.1272 25.6521 45.9565 25.6521Z"
      fill="#F1F3F9"/>
  <g filter="url(#filter2_d_567_20642)">
    <path
        d="M134.214 71.82C134.076 74.1699 132.21 76.1051 129.791 76.1051H46.0253C43.5372 76.1051 41.6021 74.1699 41.6021 71.82V15.285C41.6021 12.9352 43.5372 11 46.0253 11H129.86C132.348 11 134.283 12.9352 134.283 15.285V71.82H134.214Z"
        fill="url(#paint2_linear_567_20642)"/>
  </g>
  <path
      d="M46.6475 17.5657C47.4768 17.5657 48.168 16.8745 48.168 16.0452C48.168 15.2158 47.4768 14.4556 46.6475 14.4556C45.8181 14.4556 45.127 15.1467 45.127 15.9761C45.127 16.8054 45.8181 17.5657 46.6475 17.5657Z"
      fill="#AAB2C5"/>
  <path
      d="M51.1396 17.5657C51.969 17.5657 52.6601 16.8745 52.6601 16.0452C52.6601 15.2158 51.969 14.4556 51.1396 14.4556C50.3103 14.4556 49.6191 15.1467 49.6191 15.9761C49.6191 16.8054 50.3103 17.5657 51.1396 17.5657Z"
      fill="#AAB2C5"/>
  <path
      d="M55.7703 17.5657C56.5996 17.5657 57.2908 16.8745 57.2908 16.0452C57.2908 15.2158 56.5996 14.4556 55.7703 14.4556C54.9409 14.4556 54.2498 15.1467 54.2498 15.9761C54.2498 16.8054 54.8718 17.5657 55.7703 17.5657Z"
      fill="#AAB2C5"/>
  <path
      d="M81.8101 36.5031C81.8101 38.1736 80.4558 39.5279 78.7853 39.5279C77.1147 39.5279 75.7605 38.1736 75.7605 36.5031C75.7605 34.8325 77.1147 33.4783 78.7853 33.4783C80.4558 33.4783 81.8101 34.8325 81.8101 36.5031Z"
      fill="#AAB2C5" stroke="white"/>
  <path
      d="M98.6739 36.5031C98.6739 38.1736 97.3196 39.5279 95.6491 39.5279C93.9785 39.5279 92.6243 38.1736 92.6243 36.5031C92.6243 34.8325 93.9785 33.4783 95.6491 33.4783C97.3196 33.4783 98.6739 34.8325 98.6739 36.5031Z"
      fill="#AAB2C5" stroke="white"/>
  <path
      d="M94.6122 54.6107H79.8218C77.472 54.6107 76.1588 51.9844 77.5411 50.0492C78.5778 48.5978 79.891 47.4229 81.4115 46.5244C83.1393 45.5568 85.1436 45.0039 87.217 45.0039C89.7051 45.0039 91.9859 45.7642 93.921 47.0773C95.096 47.9067 96.1327 48.8743 96.962 50.0492C98.2752 51.9844 96.962 54.6107 94.6122 54.6107Z"
      fill="#D6DCE8" stroke="#D6DCE8" stroke-width="1.7035" stroke-miterlimit="10"/>
  <path
      d="M92.4003 54.6107H82.1024C82.0333 54.4724 82.0333 54.3342 82.1024 54.196C82.8626 52.0535 84.8669 50.533 87.2859 50.533C89.7049 50.533 91.7092 52.0535 92.4694 54.196C92.4694 54.3342 92.4694 54.4724 92.4003 54.6107Z"
      fill="#AAB2C5"/>
  <path
      d="M93.9209 47.7685V48.3214C93.9209 48.7361 93.5754 49.0125 93.2298 49.0125H82.1716C81.7569 49.0125 81.4805 48.667 81.4805 48.3214V47.2156C83.2083 46.248 85.2126 45.6951 87.286 45.6951C89.705 45.6951 91.9857 46.4553 93.9209 47.7685Z"
      fill="white"/>
  <path
      d="M61.4378 35.4621C61.4378 36.8467 60.3627 37.9543 59.0188 37.9543C57.675 37.9543 56.5999 36.8467 56.5999 35.4621C56.5999 34.4098 58.0512 31.253 58.6963 29.8684C58.8038 29.5915 59.1801 29.5915 59.3414 29.8684C59.9864 31.1976 61.4378 34.3544 61.4378 35.4621Z"
      fill="#D6DCE8"/>
  <path
      d="M147.208 22.542C148.314 23.5787 148.452 25.3066 147.415 26.4815C146.379 27.5873 144.651 27.7256 143.476 26.6889C142.577 25.9286 141.057 22.3347 140.435 20.7451C140.297 20.4686 140.573 20.1231 140.919 20.1922C142.577 20.6069 146.309 21.7127 147.208 22.542Z"
      fill="#D6DCE8"/>
  <path
      d="M146.793 34.7751C147.622 36.0883 147.277 37.747 145.964 38.5763C144.65 39.4057 142.992 39.0601 142.162 37.747C141.54 36.7794 140.987 32.909 140.78 31.1812C140.711 30.8356 141.126 30.6283 141.402 30.7665C142.854 31.665 146.171 33.7384 146.793 34.7751Z"
      fill="#D6DCE8"/>
  <path
      d="M55.9085 41.6823C55.9085 43.0669 54.8334 44.1746 53.4895 44.1746C52.1457 44.1746 51.0706 43.0669 51.0706 41.6823C51.0706 40.63 52.5219 37.4732 53.167 36.0886C53.2745 35.8117 53.6508 35.8117 53.8121 36.0886C54.4571 37.4732 55.9085 40.63 55.9085 41.6823Z"
      fill="#D6DCE8"/>
  <path
      d="M122.949 54.6107H137.601C138.5 54.6107 139.329 54.9563 139.951 55.5783L150.318 65.9454C150.94 66.5674 151.286 67.3967 151.286 68.2952V82.8782C151.286 83.7767 150.94 84.606 150.318 85.2281L140.089 95.4569C139.467 96.0789 138.638 96.4245 137.739 96.4245H122.949C122.05 96.4245 121.221 96.0789 120.599 95.4569L110.094 84.9516C109.472 84.3296 109.126 83.5002 109.126 82.6017V68.2952C109.126 67.3967 109.472 66.5674 110.094 65.9454L120.53 55.5783C121.221 54.9563 122.05 54.6107 122.949 54.6107Z"
      fill="url(#paint3_linear_567_20642)"/>
  <path
      d="M132.694 62.9337V69.8695C132.694 70.3319 132.694 70.7943 132.625 71.3227L131.865 76.2769C131.795 76.6732 131.45 77.0035 130.966 77.0035H129.446C129.031 77.0035 128.616 76.6732 128.547 76.2769L127.787 71.3227C127.718 70.8603 127.718 70.3979 127.718 69.8695V62.9337C127.718 62.4713 128.132 62.075 128.616 62.075H131.865C132.279 62.141 132.694 62.4713 132.694 62.9337Z"
      fill="white"/>
  <path
      d="M131.865 87.4397H128.478C127.925 87.4397 127.441 86.9559 127.441 86.403V83.0164C127.441 82.4635 127.925 81.9797 128.478 81.9797H131.865C132.418 81.9797 132.901 82.4635 132.901 83.0164V86.403C132.901 86.9559 132.418 87.4397 131.865 87.4397Z"
      fill="white"/>
  <defs>
    <filter id="filter0_d_567_20642" x="0.250488" y="17.624" width="136.612" height="109.105"
            filterUnits="userSpaceOnUse" color-interpolation-filters="sRGB">
      <feFlood flood-opacity="0" result="BackgroundImageFix"/>
      <feColorMatrix in="SourceAlpha" type="matrix" values="0 0 0 0 0 0 0 0 0 0 0 0 0 0 0 0 0 0 127 0"
                     result="hardAlpha"/>
      <feOffset dy="11"/>
      <feGaussianBlur stdDeviation="11"/>
      <feColorMatrix type="matrix" values="0 0 0 0 0.397708 0 0 0 0 0.47749 0 0 0 0 0.575 0 0 0 0.27 0"/>
      <feBlend mode="normal" in2="BackgroundImageFix" result="effect1_dropShadow_567_20642"/>
      <feBlend mode="normal" in="SourceGraphic" in2="effect1_dropShadow_567_20642" result="shape"/>
    </filter>
    <filter id="filter1_d_567_20642" x="9.78809" y="8.15552" width="136.612" height="109.105"
            filterUnits="userSpaceOnUse" color-interpolation-filters="sRGB">
      <feFlood flood-opacity="0" result="BackgroundImageFix"/>
      <feColorMatrix in="SourceAlpha" type="matrix" values="0 0 0 0 0 0 0 0 0 0 0 0 0 0 0 0 0 0 127 0"
                     result="hardAlpha"/>
      <feOffset dy="11"/>
      <feGaussianBlur stdDeviation="11"/>
      <feColorMatrix type="matrix" values="0 0 0 0 0.397708 0 0 0 0 0.47749 0 0 0 0 0.575 0 0 0 0.27 0"/>
      <feBlend mode="normal" in2="BackgroundImageFix" result="effect1_dropShadow_567_20642"/>
      <feBlend mode="normal" in="SourceGraphic" in2="effect1_dropShadow_567_20642" result="shape"/>
    </filter>
    <filter id="filter2_d_567_20642" x="19.6021" y="0" width="136.681" height="109.105" filterUnits="userSpaceOnUse"
            color-interpolation-filters="sRGB">
      <feFlood flood-opacity="0" result="BackgroundImageFix"/>
      <feColorMatrix in="SourceAlpha" type="matrix" values="0 0 0 0 0 0 0 0 0 0 0 0 0 0 0 0 0 0 127 0"
                     result="hardAlpha"/>
      <feOffset dy="11"/>
      <feGaussianBlur stdDeviation="11"/>
      <feColorMatrix type="matrix" values="0 0 0 0 0.397708 0 0 0 0 0.47749 0 0 0 0 0.575 0 0 0 0.27 0"/>
      <feBlend mode="normal" in2="BackgroundImageFix" result="effect1_dropShadow_567_20642"/>
      <feBlend mode="normal" in="SourceGraphic" in2="effect1_dropShadow_567_20642" result="shape"/>
    </filter>
    <linearGradient id="paint0_linear_567_20642" x1="68.5265" y1="27.1181" x2="68.5265" y2="94.431"
                    gradientUnits="userSpaceOnUse">
      <stop stop-color="#FDFEFF"/>
      <stop offset="0.9964" stop-color="#ECF0F5"/>
    </linearGradient>
    <linearGradient id="paint1_linear_567_20642" x1="78.0641" y1="17.6496" x2="78.0641" y2="84.9624"
                    gradientUnits="userSpaceOnUse">
      <stop stop-color="#FDFEFF"/>
      <stop offset="0.9964" stop-color="#ECF0F5"/>
    </linearGradient>
    <linearGradient id="paint2_linear_567_20642" x1="87.9125" y1="9.49406" x2="87.9125" y2="76.8069"
                    gradientUnits="userSpaceOnUse">
      <stop stop-color="#FDFEFF"/>
      <stop offset="0.9964" stop-color="#ECF0F5"/>
    </linearGradient>
    <linearGradient id="paint3_linear_567_20642" x1="109.107" y1="75.5221" x2="151.293" y2="75.5221"
                    gradientUnits="userSpaceOnUse">
      <stop stop-color="#B0BACC"/>
      <stop offset="1" stop-color="#969EAE"/>
    </linearGradient>
  </defs>
</svg>
