<svg xmlns="http://www.w3.org/2000/svg" width="157" height="127" viewBox="0 0 157 127">
  <path
      d="M122.949 23.5786H19.2785C16.9977 23.5786 14.9934 25.5829 14.9934 27.8637V99.1889C14.9934 101.47 16.9977 100.64 19.2785 100.64H122.672C124.953 100.64 126.958 101.47 126.958 99.1889V27.8637C127.234 25.5829 125.23 23.5786 122.949 23.5786Z"
      fill="#3E4350"/>
  <path
      d="M140.296 96.6318V98.9126C140.296 101.47 138.016 103.751 135.458 103.751H6.83796C4.28075 103.751 2 101.47 2 98.9126V96.6318H140.296Z"
      fill="#474E61"/>
  <path
      d="M84.3835 96.6318V97.4612C84.3835 98.9126 83.2776 100.295 81.5498 100.295H60.4701C59.0187 100.295 57.6365 99.189 57.6365 97.4612V96.6318H84.3835Z"
      fill="#353A45"/>
  <g filter="url(#filter0_d_577_1290)">
    <path
        d="M114.863 32.9091V89.444C114.725 91.7939 112.858 93.7291 110.44 93.7291H26.6738C24.1857 93.7291 22.2505 91.7939 22.2505 89.444V32.9091C22.2505 30.5592 24.1857 28.624 26.6738 28.624H110.509C112.997 28.624 114.863 30.5592 114.863 32.9091Z"
        fill="#5C6479"/>
  </g>
  <path
      d="M27.2959 35.1206C28.1253 35.1206 28.8164 34.4295 28.8164 33.6001C28.8164 32.7707 28.1253 32.0796 27.2959 32.0796C26.4665 32.0796 25.7754 32.7707 25.7754 33.6001C25.7754 34.4295 26.4665 35.1206 27.2959 35.1206Z"
      fill="#474E61"/>
  <path
      d="M31.7881 35.1206C32.6174 35.1206 33.3086 34.4295 33.3086 33.6001C33.3086 32.7707 32.6174 32.0796 31.7881 32.0796C30.9587 32.0796 30.2676 32.7707 30.2676 33.6001C30.2676 34.4295 30.9587 35.1206 31.7881 35.1206Z"
      fill="#474E61"/>
  <path
      d="M36.4189 35.1206C37.2483 35.1206 37.9394 34.4295 37.9394 33.6001C37.9394 32.7707 37.2483 32.0796 36.4189 32.0796C35.5896 32.0796 34.8984 32.7707 34.8984 33.6001C34.8984 34.4295 35.5896 35.1206 36.4189 35.1206Z"
      fill="#F1F3F9"/>
  <g filter="url(#filter1_d_577_1290)">
    <path
        d="M124.4 23.4403V79.9753C124.4 80.0444 124.4 80.1826 124.4 80.2517C124.193 82.5325 122.327 84.2603 120.046 84.2603H36.2114C33.7233 84.2603 31.7881 82.3251 31.7881 79.9753V23.4403C31.7881 21.0905 33.7233 19.1553 36.2114 19.1553H120.046C122.534 19.1553 124.4 21.0213 124.4 23.4403Z"
        fill="#5C6479"/>
  </g>
  <path
      d="M36.8335 25.6518C37.6629 25.6518 38.354 24.9607 38.354 24.1313C38.354 23.302 37.6629 22.6108 36.8335 22.6108C36.0041 22.6108 35.313 23.302 35.313 24.1313C35.313 24.9607 36.0041 25.6518 36.8335 25.6518Z"
      fill="#474E61"/>
  <path
      d="M41.3259 25.6518C42.1553 25.6518 42.8464 24.9607 42.8464 24.1313C42.8464 23.302 42.1553 22.6108 41.3259 22.6108C40.4966 22.6108 39.8054 23.302 39.8054 24.1313C39.8054 24.9607 40.4966 25.6518 41.3259 25.6518Z"
      fill="#474E61"/>
  <path
      d="M45.9565 25.6518C46.7859 25.6518 47.477 24.9607 47.477 24.1313C47.477 23.302 46.7859 22.6108 45.9565 22.6108C45.1272 22.6108 44.436 23.302 44.436 24.1313C44.436 24.9607 45.1272 25.6518 45.9565 25.6518Z"
      fill="#F1F3F9"/>
  <g filter="url(#filter2_d_577_1290)">
    <path
        d="M134.214 71.82C134.076 74.1699 132.21 76.1051 129.791 76.1051H46.0253C43.5372 76.1051 41.6021 74.1699 41.6021 71.82V15.285C41.6021 12.9352 43.5372 11 46.0253 11H129.86C132.348 11 134.283 12.9352 134.283 15.285V71.82H134.214Z"
        fill="#5C6479"/>
  </g>
  <path
      d="M46.6475 17.5657C47.4768 17.5657 48.168 16.8745 48.168 16.0452C48.168 15.2158 47.4768 14.4556 46.6475 14.4556C45.8181 14.4556 45.127 15.1467 45.127 15.9761C45.127 16.8054 45.8181 17.5657 46.6475 17.5657Z"
      fill="#AAB2C5"/>
  <path
      d="M51.1396 17.5657C51.969 17.5657 52.6601 16.8745 52.6601 16.0452C52.6601 15.2158 51.969 14.4556 51.1396 14.4556C50.3103 14.4556 49.6191 15.1467 49.6191 15.9761C49.6191 16.8054 50.3103 17.5657 51.1396 17.5657Z"
      fill="#AAB2C5"/>
  <path
      d="M55.7703 17.5657C56.5996 17.5657 57.2908 16.8745 57.2908 16.0452C57.2908 15.2158 56.5996 14.4556 55.7703 14.4556C54.9409 14.4556 54.2498 15.1467 54.2498 15.9761C54.2498 16.8054 54.8718 17.5657 55.7703 17.5657Z"
      fill="#AAB2C5"/>
  <path
      d="M78.7853 40.0281C80.732 40.0281 82.3101 38.45 82.3101 36.5033C82.3101 34.5566 80.732 32.9785 78.7853 32.9785C76.8386 32.9785 75.2605 34.5566 75.2605 36.5033C75.2605 38.45 76.8386 40.0281 78.7853 40.0281Z"
      fill="#AAB2C5"/>
  <path
      d="M95.6491 40.0281C97.5958 40.0281 99.1739 38.45 99.1739 36.5033C99.1739 34.5566 97.5958 32.9785 95.6491 32.9785C93.7024 32.9785 92.1243 34.5566 92.1243 36.5033C92.1243 38.45 93.7024 40.0281 95.6491 40.0281Z"
      fill="#AAB2C5"/>
  <path
      d="M94.6122 54.6107H79.8218C77.472 54.6107 76.1588 51.9844 77.5411 50.0492C78.5778 48.5978 79.891 47.4229 81.4115 46.5244C83.1393 45.5568 85.1436 45.0039 87.217 45.0039C89.7051 45.0039 91.9859 45.7642 93.921 47.0773C95.096 47.9067 96.1327 48.8743 96.962 50.0492C98.2752 51.9844 96.962 54.6107 94.6122 54.6107Z"
      fill="#474E61" stroke="#474E61" stroke-width="1.7035" stroke-miterlimit="10"/>
  <path
      d="M92.4003 54.6109H82.1024C82.0333 54.4727 82.0333 54.3345 82.1024 54.1962C82.8626 52.0537 84.8669 50.5332 87.2859 50.5332C89.7049 50.5332 91.7092 52.0537 92.4694 54.1962C92.4694 54.3345 92.4694 54.4727 92.4003 54.6109Z"
      fill="#AAB2C5"/>
  <path
      d="M93.9209 47.7687V48.3216C93.9209 48.7363 93.5754 49.0128 93.2298 49.0128H82.1716C81.7569 49.0128 81.4805 48.6672 81.4805 48.3216V47.2158C83.2083 46.2482 85.2126 45.6953 87.286 45.6953C89.705 45.6953 91.9857 46.4556 93.9209 47.7687Z"
      fill="white"/>
  <path
      d="M61.4378 35.462C61.4378 36.8466 60.3627 37.9543 59.0188 37.9543C57.675 37.9543 56.5999 36.8466 56.5999 35.462C56.5999 34.4098 58.0512 31.2529 58.6963 29.8683C58.8038 29.5914 59.1801 29.5914 59.3414 29.8683C59.9864 31.1975 61.4378 34.3544 61.4378 35.462Z"
      fill="#474E61"/>
  <path
      d="M147.208 22.5419C148.314 23.5786 148.452 25.3065 147.415 26.4814C146.379 27.5872 144.651 27.7254 143.476 26.6887C142.577 25.9285 141.057 22.3346 140.435 20.745C140.297 20.4685 140.573 20.1229 140.919 20.192C142.577 20.6067 146.309 21.7125 147.208 22.5419Z"
      fill="#474E61"/>
  <path
      d="M146.793 34.775C147.622 36.0882 147.277 37.7469 145.964 38.5763C144.65 39.4056 142.992 39.0601 142.162 37.7469C141.54 36.7793 140.987 32.909 140.78 31.1811C140.711 30.8356 141.126 30.6282 141.402 30.7664C142.854 31.6649 146.171 33.7383 146.793 34.775Z"
      fill="#474E61"/>
  <path
      d="M55.9085 41.6823C55.9085 43.0668 54.8334 44.1745 53.4895 44.1745C52.1457 44.1745 51.0706 43.0668 51.0706 41.6823C51.0706 40.63 52.5219 37.4731 53.167 36.0885C53.2745 35.8116 53.6508 35.8116 53.8121 36.0885C54.4571 37.4731 55.9085 40.63 55.9085 41.6823Z"
      fill="#474E61"/>
  <g filter="url(#filter3_d_577_1290)">
    <path
        d="M122.949 54.6108H137.601C138.5 54.6108 139.329 54.9564 139.951 55.5784L150.318 65.9455C150.94 66.5675 151.286 67.3969 151.286 68.2953V82.8783C151.286 83.7768 150.94 84.6062 150.318 85.2282L140.089 95.457C139.467 96.079 138.638 96.4246 137.739 96.4246H122.949C122.05 96.4246 121.221 96.079 120.599 95.457L110.094 84.9517C109.472 84.3297 109.126 83.5003 109.126 82.6019V68.2953C109.126 67.3969 109.472 66.5675 110.094 65.9455L120.53 55.5784C121.221 54.9564 122.05 54.6108 122.949 54.6108Z"
        fill="url(#paint0_linear_577_1290)"/>
  </g>
  <path
      d="M132.694 62.9339V69.8697C132.694 70.3321 132.694 70.7945 132.625 71.323L131.865 76.2771C131.795 76.6735 131.45 77.0037 130.966 77.0037H129.446C129.031 77.0037 128.616 76.6735 128.547 76.2771L127.787 71.323C127.718 70.8606 127.718 70.3982 127.718 69.8697V62.9339C127.718 62.4715 128.132 62.0752 128.616 62.0752H131.865C132.279 62.1413 132.694 62.4715 132.694 62.9339Z"
      fill="#474E61"/>
  <path
      d="M131.865 87.44H128.478C127.925 87.44 127.441 86.9562 127.441 86.4033V83.0167C127.441 82.4638 127.925 81.98 128.478 81.98H131.865C132.418 81.98 132.901 82.4638 132.901 83.0167V86.4033C132.901 86.9562 132.418 87.44 131.865 87.44Z"
      fill="#474E61"/>
  <defs>
    <filter id="filter0_d_577_1290" x="0.250488" y="17.624" width="136.612" height="109.105"
            filterUnits="userSpaceOnUse" color-interpolation-filters="sRGB">
      <feFlood flood-opacity="0" result="BackgroundImageFix"/>
      <feColorMatrix in="SourceAlpha" type="matrix" values="0 0 0 0 0 0 0 0 0 0 0 0 0 0 0 0 0 0 127 0"
                     result="hardAlpha"/>
      <feOffset dy="11"/>
      <feGaussianBlur stdDeviation="11"/>
      <feColorMatrix type="matrix" values="0 0 0 0 0 0 0 0 0 0 0 0 0 0 0 0 0 0 0.27 0"/>
      <feBlend mode="normal" in2="BackgroundImageFix" result="effect1_dropShadow_577_1290"/>
      <feBlend mode="normal" in="SourceGraphic" in2="effect1_dropShadow_577_1290" result="shape"/>
    </filter>
    <filter id="filter1_d_577_1290" x="9.78809" y="8.15527" width="136.612" height="109.105"
            filterUnits="userSpaceOnUse" color-interpolation-filters="sRGB">
      <feFlood flood-opacity="0" result="BackgroundImageFix"/>
      <feColorMatrix in="SourceAlpha" type="matrix" values="0 0 0 0 0 0 0 0 0 0 0 0 0 0 0 0 0 0 127 0"
                     result="hardAlpha"/>
      <feOffset dy="11"/>
      <feGaussianBlur stdDeviation="11"/>
      <feColorMatrix type="matrix" values="0 0 0 0 0 0 0 0 0 0 0 0 0 0 0 0 0 0 0.27 0"/>
      <feBlend mode="normal" in2="BackgroundImageFix" result="effect1_dropShadow_577_1290"/>
      <feBlend mode="normal" in="SourceGraphic" in2="effect1_dropShadow_577_1290" result="shape"/>
    </filter>
    <filter id="filter2_d_577_1290" x="19.6021" y="0" width="136.681" height="109.105" filterUnits="userSpaceOnUse"
            color-interpolation-filters="sRGB">
      <feFlood flood-opacity="0" result="BackgroundImageFix"/>
      <feColorMatrix in="SourceAlpha" type="matrix" values="0 0 0 0 0 0 0 0 0 0 0 0 0 0 0 0 0 0 127 0"
                     result="hardAlpha"/>
      <feOffset dy="11"/>
      <feGaussianBlur stdDeviation="11"/>
      <feColorMatrix type="matrix" values="0 0 0 0 0 0 0 0 0 0 0 0 0 0 0 0 0 0 0.27 0"/>
      <feBlend mode="normal" in2="BackgroundImageFix" result="effect1_dropShadow_577_1290"/>
      <feBlend mode="normal" in="SourceGraphic" in2="effect1_dropShadow_577_1290" result="shape"/>
    </filter>
    <filter id="filter3_d_577_1290" x="105.126" y="54.6108" width="50.1594" height="49.814" filterUnits="userSpaceOnUse"
            color-interpolation-filters="sRGB">
      <feFlood flood-opacity="0" result="BackgroundImageFix"/>
      <feColorMatrix in="SourceAlpha" type="matrix" values="0 0 0 0 0 0 0 0 0 0 0 0 0 0 0 0 0 0 127 0"
                     result="hardAlpha"/>
      <feOffset dy="4"/>
      <feGaussianBlur stdDeviation="2"/>
      <feComposite in2="hardAlpha" operator="out"/>
      <feColorMatrix type="matrix" values="0 0 0 0 0 0 0 0 0 0 0 0 0 0 0 0 0 0 0.25 0"/>
      <feBlend mode="normal" in2="BackgroundImageFix" result="effect1_dropShadow_577_1290"/>
      <feBlend mode="normal" in="SourceGraphic" in2="effect1_dropShadow_577_1290" result="shape"/>
    </filter>
    <linearGradient id="paint0_linear_577_1290" x1="118.797" y1="65.587" x2="136.713" y2="96.1694"
                    gradientUnits="userSpaceOnUse">
      <stop stop-color="#E3EAF7"/>
      <stop offset="1" stop-color="#ADB6C8"/>
    </linearGradient>
  </defs>
</svg>
